<?xml version="1.0" standalone="no"?>
<!DOCTYPE svg PUBLIC "-//W3C//DTD SVG 20010904//EN"
 "http://www.w3.org/TR/2001/REC-SVG-20010904/DTD/svg10.dtd">
<svg version="1.0" xmlns="http://www.w3.org/2000/svg"
 width="256.000000pt" height="256.000000pt" viewBox="0 0 256.000000 256.000000"
 preserveAspectRatio="xMidYMid meet">
<metadata>
Created by potrace 1.14, written by Peter Selinger 2001-2017
</metadata>
<g transform="translate(0.000000,256.000000) scale(0.100000,-0.100000)"
fill="#000000" stroke="none">
<path d="M230 2469 c-60 -27 -107 -74 -136 -134 l-24 -50 0 -1005 c0 -989 1
-1006 21 -1050 27 -60 74 -107 134 -136 l50 -24 999 0 c753 0 1009 3 1040 12
55 16 148 109 164 164 9 31 12 287 12 1040 l0 999 -24 50 c-29 60 -76 107
-136 134 -44 20 -61 21 -1050 21 -989 0 -1006 -1 -1050 -21z m1278 -463 c228
-57 342 -220 330 -470 -3 -75 -9 -101 -33 -149 -50 -101 -139 -169 -278 -211
l-67 -21 185 -198 c101 -109 189 -206 195 -217 29 -54 -1 -147 -60 -187 -42
-29 -122 -31 -165 -4 -16 10 -136 147 -265 304 l-235 286 -5 -252 c-4 -218 -7
-257 -23 -285 -26 -48 -72 -72 -137 -72 -65 0 -111 24 -137 72 -17 31 -18 76
-18 673 0 594 1 642 18 672 20 37 53 62 100 74 57 15 524 3 595 -15z"/>
<path d="M1110 1555 l0 -185 133 0 c118 0 138 3 177 23 146 73 124 296 -34
336 -25 6 -97 11 -160 11 l-116 0 0 -185z"/>
</g>
</svg>
